<svg xmlns="http://www.w3.org/2000/svg" width="567.032" height="800.621" viewBox="0 0 567.032 800.621">
  <g id="Group_249" data-name="Group 249" transform="translate(-676 -140)">
    <path id="Path_2985" data-name="Path 2985" d="M167.3,771a2.3,2.3,0,0,0,.228,1.047.676.676,0,0,0,.552.432H733.547c.431,0,.78-.662.78-1.479s-.349-1.479-.78-1.479H168.076a.676.676,0,0,0-.553.432A2.3,2.3,0,0,0,167.3,771Z" transform="translate(508.705 167.293)" fill="#ccc"/>
    <path id="Path_2956" data-name="Path 2956" d="M356.625,556.848c0-6.664,2.238-12.072,4.985-12.084H568.591c2.76.012,4.985,5.42,5,12.084v274.3a2.49,2.49,0,0,0,2.249,2.478q3.015.29,6.031.539c.05,0,.1.012.149.012,1.094.1,2.188.174,3.282.261h.013q.844-1.561,1.669-3.149a2.5,2.5,0,0,0,.283-1.155V541.172c0-1.84-.075-3.692-.2-5.52a70.734,70.734,0,0,0-.932-7.484c-2.1-11.549-6.85-19.369-12.246-19.394H356.327a5.821,5.821,0,0,0-2.288.485,8.918,8.918,0,0,0-2.822,1.977,17.5,17.5,0,0,0-2.772,3.792c-2.66,4.687-4.562,11.674-5.234,19.8,0,.075-.012.149-.012.224-.174,2.014-.261,4.065-.249,6.117l-.174,26.642-.112,15.888-.336,49.852-.124,17.7-.547,181.756h0a2.486,2.486,0,0,0,2.486,2.486h10a2.486,2.486,0,0,0,2.486-2.486Z" transform="translate(481.812 105.121)" fill="#090814"/>
    <path id="Path_2957" data-name="Path 2957" d="M216.883,329.908l14.4,63.347,9.2,10.077h6.637L219.762,288.155l-1.353,19.567v.014Z" transform="translate(767.82 210.08)" fill="#090814"/>
    <path id="Path_2958" data-name="Path 2958" d="M373.121,501.527l84.463-.535,7.5-.05,5.346-.037,6.228-.037h.05a3.437,3.437,0,0,1,2.412.995l10.517,10.518a2.715,2.715,0,0,1,.559.8,1.218,1.218,0,0,1,.162.273,3.511,3.511,0,0,1-3.158,4.9H377.783a3.481,3.481,0,0,1-3.133-1.989l-.858-1.865-1.765-3.792-2-4.277a3.407,3.407,0,0,1-.323-1.455,3.462,3.462,0,0,1,3.419-3.444Z" transform="translate(542.293 103.199)" fill="#090814"/>
    <path id="Path_2959" data-name="Path 2959" d="M369.7,512.082l.864,1.872a3.48,3.48,0,0,0,3.124,1.987H483.109a3.5,3.5,0,0,0,3.153-4.9,1.042,1.042,0,0,0-.159-.273Z" transform="translate(546.383 105.607)" opacity="0.17" style="isolation: isolate"/>
    <path id="Path_2960" data-name="Path 2960" d="M216.883,307.722v.014l23.424,95.6h5.284L218.236,288.155Z" transform="translate(769.347 210.08)" opacity="0.17" style="isolation: isolate"/>
    <path id="Path_2961" data-name="Path 2961" d="M375.219,501.425l33.156-252.258a3.6,3.6,0,0,1,1.367-2.387l22.825-28.569,2.051-1.579a3.642,3.642,0,0,1,2.661-.709l3.431.46a3.6,3.6,0,0,1,3.108,4.028h0L409.457,481.782v.012l-2.1,15.988-2.5,18.984v.025l-3.879,29.538a3.521,3.521,0,0,1-1.554,2.511,3.572,3.572,0,0,1-2.9.522l-2.176-.547a3.654,3.654,0,0,1-2.064-1.417l-.97-1.38-.448-.646-15.018-41.4A3.575,3.575,0,0,1,375.219,501.425Z" transform="translate(582.265 33.893)" fill="#090814"/>
    <path id="Path_2962" data-name="Path 2962" d="M416.9,218.212,375.192,545.377l.453.64.966,1.376a3.642,3.642,0,0,0,2.064,1.418l2.179.548a3.612,3.612,0,0,0,4.45-3.031l42.834-325.913a3.6,3.6,0,0,0-3.1-4.038l-3.44-.452a3.549,3.549,0,0,0-2.649.712Z" transform="translate(597.94 33.893)" fill="#090814" opacity="0.17" style="isolation: isolate"/>
    <path id="Path_2963" data-name="Path 2963" d="M266.39,97.7l-22.133,31.591L217.951,329.449l14.262,28.294Z" transform="translate(747.22 163.762)" fill="#6c63ff"/>
    <path id="Path_2980" data-name="Path 2980" d="M601.235,354.185v0a1.169,1.169,0,0,0-1.275-1.019l-191.8.511a1.166,1.166,0,0,0-1.266,1.022v0a1.169,1.169,0,0,0,1.275,1.019l191.8-.511a1.166,1.166,0,0,0,1.266-1.022Z" transform="translate(385.465 67.275)" fill="#090814"/>
    <path id="Path_2981" data-name="Path 2981" d="M418.418,454.157l8.144,8.958a2.578,2.578,0,0,0,2.76.358,8.2,8.2,0,0,0,3.486-2.389,119.2,119.2,0,0,1,19.483-17.714A8.2,8.2,0,0,0,455,440.127a2.614,2.614,0,0,0-.061-2.744c-.081-4.9-2.842-7.937-8.207-9.026-.941-.979-3.065-.607-4.97.878a197.851,197.851,0,0,0-22.026,20.026C418.06,451.035,417.493,453.14,418.418,454.157Z" transform="translate(517.56 85.432)" fill="#6c63ff"/>
    <path id="Path_2982" data-name="Path 2982" d="M424,433.821l6.855,7.539c.237.26.807.127,1.275-.3s.654-.98.418-1.241l-6.855-7.539c-.237-.26-.807-.127-1.275.3S423.762,433.561,424,433.821Z" transform="translate(532.912 86.486)" fill="#fff"/>
    <path id="Path_2983" data-name="Path 2983" d="M429.444,438.772l6.855,7.539c.237.26.807.127,1.275-.3s.654-.98.418-1.24l-6.855-7.539c-.237-.26-.807-.127-1.275.3S429.207,438.512,429.444,438.772Z" transform="translate(520.698 87.691)" fill="#fff"/>
    <path id="Path_2984" data-name="Path 2984" d="M434.888,443.722l6.855,7.539c.237.26.807.127,1.275-.3s.654-.98.418-1.241l-6.855-7.539c-.237-.26-.807-.127-1.275.3S434.652,443.462,434.888,443.722Z" transform="translate(508.484 88.895)" fill="#fff"/>
    <path id="Path_2988" data-name="Path 2988" d="M547.363,432.521h75.96A7.687,7.687,0,0,0,631,424.842V324.262a7.687,7.687,0,0,0-7.678-7.678h-75.96a7.687,7.687,0,0,0-7.678,7.678v100.58a7.687,7.687,0,0,0,7.679,7.678Z" transform="translate(190.609 58.416)" fill="#e6e6e6"/>
    <path id="Path_2989" data-name="Path 2989" d="M551.49,424.869h65.281a6.825,6.825,0,0,0,6.818-6.818v-89.5a6.825,6.825,0,0,0-6.818-6.818H551.49a6.825,6.825,0,0,0-6.818,6.818v89.5a6.825,6.825,0,0,0,6.818,6.818Z" transform="translate(191.822 59.633)" fill="#fff"/>
    <path id="Path_2990" data-name="Path 2990" d="M555.728,336.08h52.257a1.7,1.7,0,0,0,0-3.409H555.728a1.7,1.7,0,0,0,0,3.409Z" transform="translate(194.096 62.293)" fill="#6c63ff"/>
    <path id="Path_2991" data-name="Path 2991" d="M555.728,341.5h52.257a1.7,1.7,0,0,0,0-3.409H555.728a1.7,1.7,0,1,0,0,3.409Z" transform="translate(194.096 63.611)" fill="#6c63ff"/>
    <path id="Path_2992" data-name="Path 2992" d="M555.728,346.914H578.38a1.7,1.7,0,0,0,0-3.409H555.728a1.7,1.7,0,1,0,0,3.409Z" transform="translate(223.701 64.93)" fill="#6c63ff"/>
    <path id="Path_2993" data-name="Path 2993" d="M555.728,358.259h52.257a1.7,1.7,0,1,0,0-3.409H555.728a1.7,1.7,0,1,0,0,3.409Z" transform="translate(194.096 67.686)" fill="#e4e4e4"/>
    <path id="Path_2994" data-name="Path 2994" d="M555.728,363.676h52.257a1.7,1.7,0,0,0,0-3.409H555.728a1.7,1.7,0,1,0,0,3.409Z" transform="translate(194.096 69.004)" fill="#e4e4e4"/>
    <path id="Path_2995" data-name="Path 2995" d="M555.728,369.093H578.38a1.7,1.7,0,1,0,0-3.409H555.728a1.7,1.7,0,1,0,0,3.409Z" transform="translate(223.701 70.322)" fill="#e4e4e4"/>
    <path id="Path_2999" data-name="Path 2999" d="M436.47,208.557,232.691,34.256h-.323v2.559h-.622L434.806,210.5Z" transform="translate(559.99 148.33)" fill="#090814"/>
    <path id="Path_3003" data-name="Path 3003" d="M176.677,705.482c.8,5.885,4.8,11.2,9.946,14.665a26.284,26.284,0,0,0,3.868,2.163,33.634,33.634,0,0,0,4.573,1.678c6.857,2,14.266,2.09,21.476,2.13l21.862.14c5.745.033,11.676.033,16.982-2.17a2.443,2.443,0,0,0,.233-.1c5.212-2.25,9.653-7.2,9.526-12.855a11.6,11.6,0,0,0-1.638-5.652,16.552,16.552,0,0,0-2.423-3.169c-2.889-3-6.9-5.346-10.651-7.236-6.191-3.109-13.188-7.143-15-13.534a11.468,11.468,0,0,1-.386-2.057c-.426-4.394,1.711-8.434,4.434-12.049.266-.359.546-.719.832-1.078.612-.766,1.245-1.518,1.871-2.237.266-.306.533-.619.806-.932,2.516-2.916,5.053-6.031,6.377-9.513a13.763,13.763,0,0,0,.939-4.567c.146-5.652-6.171-11.344-10.951-8.674q-3.515-.339-7.03-.7c-2.876-.286-5.738-.572-8.608-.865h-.007c-.646-.053-1.278-.12-1.911-.186q-8.957-.889-17.9-1.791c-2.65-.26-5.765-.359-7.489,1.678-1.877,2.224-.905,5.738.952,7.982s4.434,3.821,6.178,6.138a13.365,13.365,0,0,1,2.137,10.5,18.837,18.837,0,0,1-.839,3.169,21.185,21.185,0,0,1-2.683,5.173c-3.914,5.485-9.713,9.266-14.859,13.614s-9.972,9.879-10.678,16.576c-.02.193-.04.393-.047.592a15.244,15.244,0,0,0,.107,3.169Z" transform="translate(931.066 213.895)" fill="#e6e6e6"/>
    <path id="Path_3004" data-name="Path 3004" d="M213.891,596.622a75.685,75.685,0,0,0,13.136-17.387,77.2,77.2,0,0,0,7.693-20.286A74.152,74.152,0,0,0,236.311,537a76.846,76.846,0,0,0-15.919-41.149q-.844-1.083-1.728-2.132c-.657-.783-1.774.344-1.122,1.122A74.251,74.251,0,0,1,212.77,595.5c-.728.718.394,1.839,1.122,1.122Z" transform="translate(935.716 261.801)" fill="#e6e6e6"/>
    <path id="Path_3005" data-name="Path 3005" d="M237.788,498.668a19.22,19.22,0,0,1-1.884-.822l-.092.144Z" transform="translate(918.96 260.334)" fill="#e6e6e6"/>
    <path id="Path_3006" data-name="Path 3006" d="M231.421,473.306a15.3,15.3,0,0,0,1.391,4.181,20.045,20.045,0,0,0,8.355,8.667c.2.106.406.22.612.32.246-.386.5-.772.739-1.158a26.856,26.856,0,0,0,3.715-8.281c.772-3.468.353-7.363-1.871-10.139s-6.451-4.021-9.52-2.224a6.7,6.7,0,0,0-2.2,2.124c.306.379.612.752.919,1.132a1.151,1.151,0,0,0,.087.1c.266.333.539.659.806.992,1.112,1.365,2.217,2.736,3.329,4.094a21.062,21.062,0,0,1-4.753.326l-.386-.02C232.24,473.393,231.827,473.359,231.421,473.306Z" transform="translate(913.083 271.707)" fill="#e6e6e6"/>
    <path id="Path_3007" data-name="Path 3007" d="M194.873,498.688l.426,5.552.113,1.5c.12-.06.246-.12.366-.18A32.488,32.488,0,0,0,212.734,484.8a31.559,31.559,0,0,0,.832-4.72c-2.157-.333-4.32-.672-6.477-1.005a21.262,21.262,0,0,1,6.431-5.572,32.135,32.135,0,0,0-5.825-15.411c-.559,9.307-10.305,15.225-13.873,23.832A19.36,19.36,0,0,0,194.873,498.688Z" transform="translate(972.085 273.623)" fill="#e6e6e6"/>
    <path id="Path_3008" data-name="Path 3008" d="M167.3,574.118c.519.027,1.039.04,1.551.033A32.532,32.532,0,0,0,192.446,563.8a31.6,31.6,0,0,0,5.812-9.1l-.133-.02c-2.157-.333-4.32-.672-6.477-1.005a21.18,21.18,0,0,1,8.821-6.724,31.725,31.725,0,0,0,.106-9.087c-4.873,7.942-16.263,8.581-23.459,14.492a19.4,19.4,0,0,0-6.624,11.2,18.254,18.254,0,0,0-.34,3.289c-.007.266-.007.526,0,.786l-.16.359Z" transform="translate(1001.506 246.955)" fill="#e6e6e6"/>
    <path id="Path_3009" data-name="Path 3009" d="M226.6,592.033c1.378,1.691,2.756,3.4,4.134,5.086a21.109,21.109,0,0,1-5.139.306,32.536,32.536,0,0,0,8.5,14.426c.379.373.772.739,1.172,1.085.08.073.166.146.246.22l.359-1.019.007-.007,2.037-5.639a19.265,19.265,0,0,0,5.159-9.46v-.013a18.583,18.583,0,0,0,.326-6.391c-1.138-9.247-8.954-17.561-7.01-26.675a32.268,32.268,0,0,0-9.653,13.094c1.112,1.365,2.217,2.736,3.328,4.094a21.054,21.054,0,0,1-4.753.326,31.129,31.129,0,0,0-.905,6.883c-.007.333-.007.659,0,.992.7.865,1.4,1.724,2.1,2.59a1.15,1.15,0,0,0,.087.1Z" transform="translate(920.794 238.234)" fill="#e6e6e6"/>
    <path id="Path_3010" data-name="Path 3010" d="M556.364,212.441h75.96A7.687,7.687,0,0,0,640,204.762v-69.5a7.687,7.687,0,0,0-7.678-7.678h-75.96a7.687,7.687,0,0,0-7.678,7.678v69.5a7.687,7.687,0,0,0,7.678,7.678Z" transform="translate(170.42 12.416)" fill="#e6e6e6"/>
    <path id="Path_3011" data-name="Path 3011" d="M560.49,204.789h65.281a6.825,6.825,0,0,0,6.818-6.818V139.549a6.825,6.825,0,0,0-6.818-6.818H560.49a6.825,6.825,0,0,0-6.818,6.818v58.423a6.825,6.825,0,0,0,6.818,6.818Z" transform="translate(171.633 13.668)" fill="#fff"/>
    <path id="Path_3012" data-name="Path 3012" d="M564.728,147.08h52.257a1.7,1.7,0,0,0,0-3.409H564.728a1.7,1.7,0,0,0,0,3.409Z" transform="translate(173.907 16.328)" fill="#6c63ff"/>
    <path id="Path_3013" data-name="Path 3013" d="M564.728,152.5h52.257a1.7,1.7,0,0,0,0-3.409H564.728a1.7,1.7,0,1,0,0,3.409Z" transform="translate(173.907 17.646)" fill="#6c63ff"/>
    <path id="Path_3014" data-name="Path 3014" d="M564.728,157.914H587.38a1.7,1.7,0,0,0,0-3.409H564.728a1.7,1.7,0,1,0,0,3.409Z" transform="translate(203.512 18.965)" fill="#6c63ff"/>
    <path id="Path_3015" data-name="Path 3015" d="M564.728,169.259h52.257a1.7,1.7,0,0,0,0-3.409H564.728a1.7,1.7,0,0,0,0,3.409Z" transform="translate(173.907 21.721)" fill="#e4e4e4"/>
    <path id="Path_3016" data-name="Path 3016" d="M564.728,174.676h52.257a1.7,1.7,0,0,0,0-3.409H564.728a1.7,1.7,0,0,0,0,3.409Z" transform="translate(173.907 23.039)" fill="#e4e4e4"/>
    <path id="Path_3017" data-name="Path 3017" d="M564.728,180.093H587.38a1.7,1.7,0,0,0,0-3.409H564.728a1.7,1.7,0,1,0,0,3.409Z" transform="translate(203.512 24.357)" fill="#e4e4e4"/>
    <path id="Path_4190" data-name="Path 4190" d="M517.641,163.221l-16.019,15.82,16.019,15.819,3.6-3.6-12.114-12.115,12.214-12.215Z" transform="translate(246.498 281.879)" fill="#6c63ff"/>
    <path id="Path_4191" data-name="Path 4191" d="M609.308,163.221l16.019,15.82L609.308,194.86l-3.6-3.6,12.114-12.115L605.6,166.926Z" transform="translate(178.459 281.879)" fill="#6c63ff"/>
    <g id="Group_248" data-name="Group 248" transform="translate(111.163 69.576)">
      <path id="Rectangle_895_-_Outline" data-name="Rectangle 895 - Outline" d="M5.241,2.62a2.623,2.623,0,0,0-2.62,2.62V55.6a2.623,2.623,0,0,0,2.62,2.62H7.987a2.623,2.623,0,0,0,2.62-2.62V5.241a2.623,2.623,0,0,0-2.62-2.62H5.241m0-2.62H7.987a5.241,5.241,0,0,1,5.241,5.241V55.6a5.241,5.241,0,0,1-5.241,5.241H5.241A5.241,5.241,0,0,1,0,55.6V5.241A5.241,5.241,0,0,1,5.241,0Z" transform="translate(839.484 279.236) rotate(45)" fill="#090814"/>
      <path id="Path_4210" data-name="Path 4210" d="M22.988,15.024a1.306,1.306,0,0,1-.909-.367L14.4,7.253A1.31,1.31,0,1,1,16.22,5.367l7.678,7.4a1.31,1.31,0,0,1-.91,2.253Z" transform="translate(815.549 283.193)" fill="#090814"/>
      <path id="Path_4211" data-name="Path 4211" d="M12.87,15.74a1.31,1.31,0,0,1-1.31-1.31,4.255,4.255,0,0,0-4.25-4.25,1.31,1.31,0,1,1,0-2.62,4.255,4.255,0,0,0,4.25-4.25,1.31,1.31,0,0,1,2.62,0,4.255,4.255,0,0,0,4.25,4.25,1.31,1.31,0,0,1,0,2.62,4.255,4.255,0,0,0-4.25,4.25A1.31,1.31,0,0,1,12.87,15.74ZM11.341,8.87A6.931,6.931,0,0,1,12.87,10.4,6.931,6.931,0,0,1,14.4,8.87,6.931,6.931,0,0,1,12.87,7.341,6.931,6.931,0,0,1,11.341,8.87Z" transform="translate(801.135 277.405)" fill="#090814"/>
      <path id="Path_4212" data-name="Path 4212" d="M22.87,25.74a1.31,1.31,0,0,1-1.31-1.31,4.255,4.255,0,0,0-4.25-4.25,1.31,1.31,0,1,1,0-2.62,4.255,4.255,0,0,0,4.25-4.25,1.31,1.31,0,1,1,2.62,0,4.255,4.255,0,0,0,4.25,4.25,1.31,1.31,0,0,1,0,2.62,4.255,4.255,0,0,0-4.25,4.25A1.31,1.31,0,0,1,22.87,25.74Zm-1.529-6.87A6.931,6.931,0,0,1,22.87,20.4,6.931,6.931,0,0,1,24.4,18.87a6.931,6.931,0,0,1-1.529-1.529A6.931,6.931,0,0,1,21.341,18.87Z" transform="translate(818.934 295.205)" fill="#090814"/>
    </g>
  </g>
</svg>
