<svg xmlns="http://www.w3.org/2000/svg" width="960" height="417.517" viewBox="0 0 960 417.517"><g transform="translate(-440.14 -321.66)"><g transform="translate(440.14 495.424)"><path d="M71.694,390.1,52.772,388.84l6.307,28.383,21.445-8.83Z" transform="translate(-12.537 -191.624)" fill="#ed9da0"/><path d="M267.948,307.634,223.8,264.744,198.567,284.3l-49.828,59.92,5.677,8.83,60.55-41,41,53.612,39.106-19.552Z" transform="translate(-35.341 -162.138)" fill="#2f2e41"/><path d="M267.948,307.634,223.8,264.744,198.567,284.3l-49.828,59.92,5.677,8.83,60.55-41,41,53.612,39.106-19.552Z" transform="translate(-35.341 -162.138)" opacity="0.1"/><path d="M342.7,574.438l-5.677,4.415L290.98,563.085l-10.723-4.415-21.445,4.415s0-17.661,20.184-17.03l20.814,5.046,24.6,1.892Z" transform="translate(-106.308 -400.56)" fill="#ed9da0"/><path d="M294.842,398.221l-13.876,8.83h-16.4l-76.319-28.383L76.608,398.852l-3.154-23.968L175.633,330.1,265.2,359.746Z" transform="translate(-17.453 -177.667)" fill="#2f2e41"/><path d="M300.595,478.254l-9.461,1.892-2.062-2.405a12.745,12.745,0,0,1-1.723-13.994h0l26.491-34.69s7.569-17.03,19.553-10.092S323.3,437.256,323.3,437.256L310.056,458.07l1.261,10.723Z" transform="translate(-112.769 -369.971)" fill="#ed9da0"/><path d="M15.625,47.506a24.6,24.6,0,1,1,28.7-8.2c2.374,6.063,7.717,19.038,7.717,19.038L24.915,69.7Z" transform="translate(223.147 18.088)" fill="#ed9da0"/><path d="M92.715,152.454,78.842,142.362l-20.21-33.284L57.394,110.2,30.274,80.551l10.091-2.522L44.779,65.41h4.287l-1.135-5.675L11.979,39.552,0,37.659l2.522-6.938L13.243,16.213l10.721-1.258,37.365-3.961,11.2-2.349L88.642,0l6.6,1.075L117.946,20a141.224,141.224,0,0,1,8.769,49.015c0,14.843-13.279,52.489-21.781,73.349-4.182,10.261-7.209,12.868-9.2,12.869C93.673,155.231,92.715,152.454,92.715,152.454Z" transform="translate(184.676 71.886)" fill="#6c63ff"/><path d="M104.822,616.936s5.649-9.575,3.263-10.693-12.52-5.574-12.52-5.574L80.7,595.744s-21.443-31.869-21.914-4.155S74.4,625.965,74.4,625.965s14.345,30.871,22.471,25.949,16.257-21.634,16.257-21.634S98.478,622.4,104.822,616.936Z" transform="translate(-58.78 -408.691)" fill="#2f2e41"/><path d="M523.357,201.911c-3.175.413-5.568-2.84-6.679-5.837s-1.957-6.5-4.716-8.118c-3.771-2.216-8.595.45-12.906-.282-4.869-.828-8.035-5.986-8.282-10.918s1.714-9.676,3.641-14.223l.672,5.651a11.207,11.207,0,0,1,4.9-9.8l-.867,8.293a8.8,8.8,0,0,1,10.126-7.28l-.136,4.941a81.639,81.639,0,0,1,16.938-.828c5.64.509,11.321,2.294,15.6,6.008,6.389,5.561,8.73,14.706,7.946,23.145s-4.265,16.359-7.894,24.019c-.913,1.926-2.176,4.1-4.292,4.345a4.323,4.323,0,0,1-4.235-3.195,11.566,11.566,0,0,1,.051-5.679c.536-2.84,1.209-5.748.71-8.6s-2.554-5.664-5.425-6.014-5.811,2.934-4.43,5.476Z" transform="translate(-267.603 -158.389)" fill="#090814"/></g><path d="M3.824,0H16.837a3.824,3.824,0,0,1,3.824,3.824V16.837a3.824,3.824,0,0,1-3.824,3.824H3.824A3.824,3.824,0,0,1,0,16.837V3.824A3.824,3.824,0,0,1,3.824,0Z" transform="translate(494.333 456.074) rotate(-86.19)" fill="#6c63ff"/><path d="M124.267,362.131,149.3,363.8l-1.667,25.034L122.6,387.165Zm23.873,2.683-22.857-1.522-1.522,22.857,22.857,1.522Z" transform="translate(358.137 84.274)" fill="#ccc"/><path d="M3.824,0H16.837a3.824,3.824,0,0,1,3.824,3.824V16.837a3.824,3.824,0,0,1-3.824,3.824H3.824A3.824,3.824,0,0,1,0,16.837V3.824A3.824,3.824,0,0,1,3.824,0Z" transform="matrix(0.978, -0.21, 0.21, 0.978, 592.011, 378.667)" fill="#6c63ff"/><path d="M244.152,276.51l5.271,24.529-24.529,5.271-5.271-24.529Zm3.975,23.692-4.812-22.4-22.4,4.812,4.812,22.4Z" transform="translate(353.878 88.032)" fill="#ccc"/><path d="M3.824,0H16.837a3.824,3.824,0,0,1,3.824,3.824V16.837a3.824,3.824,0,0,1-3.824,3.824H3.824A3.824,3.824,0,0,1,0,16.837V3.824A3.824,3.824,0,0,1,3.824,0Z" transform="matrix(0.73, -0.684, 0.684, 0.73, 575.905, 485.461)" fill="#6c63ff"/><path d="M252.187,385.156l-18.311,17.151L216.724,384l18.311-17.151Zm-18.261,15.61,16.719-15.66-15.66-16.719-16.719,15.66Z" transform="translate(354.006 84.067)" fill="#ccc"/><g transform="translate(679.481 321.66)"><path d="M862.628,463.482H277.44V80.7A21.435,21.435,0,0,1,298.848,59.29H841.22A21.434,21.434,0,0,1,862.628,80.7Z" transform="translate(-208.596 -59.29)" fill="#090814"/><rect width="550.765" height="346.45" transform="translate(84.946 26.095)" fill="#fff"/><path d="M893.4,437.721H262.633l-40.375-7.685a8.4,8.4,0,0,1-6.818-8.24V413.28H936.1v8.638a8.421,8.421,0,0,1-6.666,8.206L893.4,437.706Z" transform="translate(-215.44 -20.205)" fill="#ccc"/><path d="M595.88,424.395H495.821a9.38,9.38,0,0,1-9.367-9.367V413.29H605.268v1.737a9.38,9.38,0,0,1-9.367,9.367Z" transform="translate(-185.516 -20.204)" fill="#2f2e41"/></g><g transform="translate(765.211 374.326)"><path d="M734.48,350.745H329.89V31.1Z" transform="translate(-329.89 -31.102)" fill="#f2f2f2" style="isolation:isolate"/><circle cx="54.467" cy="54.467" r="54.467" transform="translate(34.196 186.789)" fill="#6c63ff"/><path d="M524.477,560.682a67.752,67.752,0,1,1,67.752-67.752A67.752,67.752,0,0,1,524.477,560.682Zm0-134.618a66.866,66.866,0,1,0,66.866,66.866,66.866,66.866,0,0,0-66.866-66.866Z" transform="translate(-423.69 -278.489)" fill="#3f3d56"/><path d="M5.53,0H47.4a5.53,5.53,0,0,1,0,11.06H5.53A5.53,5.53,0,0,1,5.53,0Z" transform="translate(382.534 166.063)" fill="#3f3d56"/><path d="M2.37,0H150.715a2.37,2.37,0,0,1,0,4.74H2.37A2.37,2.37,0,0,1,2.37,0Z" transform="translate(332.456 106.145)" fill="#3f3d56"/><path d="M2.37,0H150.715a2.37,2.37,0,0,1,0,4.74H2.37A2.37,2.37,0,0,1,2.37,0Z" transform="translate(332.456 124.767)" fill="#3f3d56"/><path d="M2.37,0H150.715a2.37,2.37,0,0,1,0,4.74H2.37A2.37,2.37,0,0,1,2.37,0Z" transform="translate(332.456 143.39)" fill="#3f3d56"/><path d="M3.824,0H18.3A3.824,3.824,0,0,1,22.12,3.824V18.3A3.824,3.824,0,0,1,18.3,22.12H3.824A3.824,3.824,0,0,1,0,18.3V3.824A3.824,3.824,0,0,1,3.824,0Z" transform="translate(504.43 19.128)" fill="#6c63ff"/><path d="M1011.642,316.924h-26.86v-26.86h26.86Zm-25.692-1.168h24.524V291.232H985.95Z" transform="translate(-474.823 -265.405)" fill="#ccc"/></g></g></svg>